<svg width="305" height="85" viewBox="0 0 305 85" fill="none" xmlns="http://www.w3.org/2000/svg">
<g clip-path="url(#clip0_98_3900)">
<path d="M42.5001 83.8247C65.3231 83.8247 83.8249 65.323 83.8249 42.5C83.8249 19.6769 65.3231 1.17517 42.5001 1.17517C19.677 1.17517 1.17529 19.6769 1.17529 42.5C1.17529 65.323 19.677 83.8247 42.5001 83.8247Z" fill="#0A3F24" stroke="#B08949" stroke-width="2.35043" stroke-miterlimit="10"/>
<path d="M46.4375 46.3661C46.4101 46.0476 46.3661 45.74 46.3002 45.4435C46.0806 44.2792 45.6687 43.2194 45.0536 42.2528C44.0871 40.7426 42.9119 39.4576 41.5335 38.4251C41.3797 38.3098 41.2259 38.189 41.0557 38.0737C41.0118 38.0462 40.9678 38.0078 40.9184 37.9748C39.6224 37.0412 37.9529 35.9649 35.943 34.7347C33.7353 33.4497 31.9835 32.3184 30.6984 31.3519C29.4134 30.3853 28.326 29.2376 27.4583 27.9031C26.5797 26.5631 26.1458 25.0255 26.1458 23.2791C26.1458 21.2966 26.7609 19.6162 28.0075 18.2433C29.2486 16.8594 31.0389 16.1729 33.3893 16.1729C35.4981 16.1729 37.2994 16.7715 38.7712 17.9632C40.2374 19.1549 41.3687 20.5498 42.143 22.1423C42.9284 23.7239 43.4556 25.2067 43.7356 26.5906C43.7796 26.7718 43.9278 26.8432 44.1805 26.7993C44.4331 26.7553 44.5594 26.6345 44.5594 26.4478L44.2903 17.8259C44.2903 17.3207 43.9169 16.9033 43.1865 16.5848C41.9838 16.0795 40.6438 15.6786 39.1446 15.4096C37.6509 15.1295 36.1956 14.9922 34.7677 14.9922C32.4722 14.9922 30.292 15.3986 28.2436 16.2058C26.2007 17.0131 24.5423 18.2433 23.2792 19.8962C22.0161 21.5492 21.3791 23.5482 21.3791 25.8931C21.3791 27.7823 21.8129 29.4298 22.6916 30.8302C23.5702 32.2305 24.6356 33.4167 25.9042 34.3833C27.1728 35.3443 28.9081 36.5195 31.1158 37.9034C33.4113 39.3258 35.2236 40.5449 36.5361 41.5554C37.8486 42.5658 38.9689 43.8454 39.9079 45.3831C40.3528 46.108 40.6933 46.9043 40.9184 47.7555C40.9733 47.9257 41.0173 48.1069 41.0557 48.2882C41.2369 49.0954 41.3248 49.9631 41.3248 50.8747C41.3248 51.7863 41.2369 52.676 41.0557 53.4284C41.0118 53.5986 40.9678 53.7743 40.9184 53.9336C40.5669 55.0759 39.9848 55.971 39.183 56.6355C37.7607 57.7997 35.9649 58.3928 33.8012 58.3928C30.627 58.3928 28.013 57.1517 25.9426 54.664C23.8723 52.1872 22.3236 49.2382 21.3187 45.8334C21.2637 45.6522 21.11 45.5808 20.8299 45.6247C20.5608 45.6686 20.44 45.7894 20.4839 45.9707L21.1704 55.8392C21.2582 56.2566 21.3406 56.5421 21.412 56.6959C21.4834 56.8606 21.6317 57.0144 21.8623 57.1462C23.1474 57.9315 24.718 58.5466 26.5852 59.0079C28.4468 59.4692 30.303 59.6943 32.1372 59.6943C35.7013 59.6943 38.6778 58.9694 41.0447 57.5032C41.6049 57.1572 42.1376 56.7728 42.6263 56.3444C44.499 54.7189 45.7016 52.709 46.2014 50.3311C46.3167 49.8148 46.3936 49.2931 46.4375 48.7385C46.476 48.3595 46.4925 47.9587 46.4925 47.5523C46.4925 47.1459 46.476 46.7395 46.4265 46.3496L46.4375 46.3661Z" fill="#B08949"/>
<path d="M65.6253 34.8885L65.4167 28.672C65.4167 28.4468 65.3782 28.282 65.3178 28.1942C65.2464 28.1063 65.1201 28.0569 64.9389 28.0569H35.6793C35.4981 28.0569 35.4157 28.1942 35.4432 28.4633C35.4596 28.7433 35.542 28.8806 35.6793 28.8806C37.2005 28.8806 38.3208 29.0069 39.0237 29.2596C39.7376 29.5122 40.2264 29.9625 40.479 30.605C40.7316 31.2475 40.8744 32.258 40.9238 33.6364V47.7555C40.9788 47.9257 41.0227 48.107 41.0611 48.2882C41.2424 49.0955 41.3302 49.9631 41.3302 50.8748C41.3302 51.7864 41.2424 52.676 41.0611 53.4284C41.0172 53.5986 40.9733 53.7744 40.9238 53.9336V55.3614L44.7296 47.717C44.6746 47.8598 44.411 48.6781 44.9218 50.4299L46.2178 50.3421L46.3057 50.3311H54.999C57.1133 50.3311 58.6784 50.8089 59.6943 51.7534C60.7048 52.6925 61.2155 54.1752 61.2155 56.2017C61.2155 56.3829 61.3528 56.4708 61.6329 56.4708C61.913 56.4708 62.0503 56.3829 62.0503 56.2017L61.9789 52.6815C61.9349 51.9951 61.9075 50.9516 61.9075 49.5787V43.7795C61.9514 43.5434 61.8251 43.4335 61.5286 43.4335C61.232 43.4335 61.0837 43.5434 61.0837 43.7795C61.0837 45.5698 60.6334 46.8439 59.7383 47.6072C58.8431 48.3651 57.3329 48.7495 55.2132 48.7495H46.3112V33.7078C46.3551 32.3788 46.4814 31.4123 46.6901 30.8137C46.8988 30.2151 47.3601 29.8032 48.074 29.5671C48.7879 29.3419 49.9192 29.2211 51.4843 29.2211H56.1083C58.4148 29.2211 60.3424 29.9735 61.9075 31.4617C63.4726 32.95 64.4391 34.9434 64.8126 37.4312C64.9004 37.5685 65.0652 37.6398 65.2904 37.6398C65.5704 37.6398 65.7077 37.5685 65.7077 37.4312L65.6363 34.8775L65.6253 34.8885ZM54.307 70.3537C51.9621 70.3537 50.2377 70.2109 49.1339 69.9363C48.0301 69.6562 47.2997 69.1785 46.9262 68.4865C46.5528 67.7891 46.3496 66.7402 46.3002 65.3123V55.3065C45.2348 57.602 41.9782 59.6504 40.9183 60.2655V65.5869C40.9183 67.0148 40.792 68.0472 40.5394 68.7007C40.2868 69.3432 39.809 69.7771 39.0896 70.0132C38.3757 70.2384 37.2334 70.3592 35.6683 70.3592C35.5804 70.3592 35.531 70.4965 35.531 70.7656C35.531 71.0347 35.575 71.1829 35.6683 71.1829C37.0961 71.1829 38.2 71.1665 38.9853 71.117L43.461 71.0456L50.7814 71.117C51.704 71.161 52.8682 71.1829 54.3015 71.1829C54.4388 71.1829 54.5102 71.0456 54.5102 70.7656C54.5102 70.4855 54.4388 70.3592 54.3015 70.3592L54.307 70.3537Z" fill="#B08949"/>
<path d="M105.819 19.7864C106.352 20.5992 107 21.2856 107.768 21.8623C108.537 22.4334 109.592 23.1528 110.932 24.0205C112.327 24.8882 113.452 25.6405 114.304 26.283C115.155 26.9256 115.874 27.7164 116.462 28.65C117.049 29.589 117.34 30.6654 117.34 31.8955C117.34 34.1856 116.528 36.0143 114.913 37.3817C113.293 38.7491 111.157 39.4356 108.504 39.4356C107.329 39.4356 106.104 39.2818 104.819 38.9743C103.534 38.6668 102.573 38.2878 101.931 37.843C101.788 37.7606 101.7 37.6618 101.656 37.5519C101.612 37.4421 101.579 37.2719 101.552 37.0467L101.261 30.6819C101.233 30.572 101.294 30.5007 101.448 30.4732C101.601 30.4457 101.706 30.4897 101.761 30.5995C102.656 32.8895 103.716 34.7841 104.946 36.2779C106.176 37.7716 107.708 38.5185 109.553 38.5185C110.756 38.5185 111.739 38.189 112.508 37.5355C113.277 36.882 113.661 35.7836 113.661 34.246C113.661 32.9609 113.375 31.8461 112.804 30.896C112.233 29.946 111.536 29.1387 110.712 28.4687C109.888 27.7987 108.79 27.0464 107.422 26.2062C106.137 25.3989 105.11 24.6905 104.342 24.0919C103.573 23.4933 102.93 22.7739 102.414 21.9336C101.898 21.0934 101.64 20.1214 101.64 19.0011C101.64 17.5513 102.046 16.3157 102.853 15.2942C103.661 14.2728 104.715 13.5204 106.017 13.0317C107.313 12.5429 108.691 12.3013 110.141 12.3013C111.063 12.3013 112.019 12.3946 113.013 12.5759C114.001 12.7571 114.836 12.9877 115.506 13.2678C115.924 13.493 116.132 13.7566 116.132 14.0641L116.215 19.759C116.215 19.8413 116.138 19.9072 115.984 19.9457C115.83 19.9896 115.737 19.9512 115.709 19.8413C115.204 18.2487 114.452 16.733 113.447 15.2942C112.442 13.8554 111.02 13.136 109.174 13.136C107.889 13.136 106.879 13.5039 106.137 14.2453C105.396 14.9867 105.028 15.9148 105.028 17.0296C105.028 18.062 105.292 18.9846 105.824 19.7919L105.819 19.7864Z" fill="white"/>
<path d="M141.218 32.3129C141.3 32.3129 141.388 32.3349 141.47 32.3733C141.553 32.4172 141.58 32.4502 141.553 32.4776C141.273 34.235 141.135 36.179 141.135 38.2988C141.135 38.524 141.092 38.6832 141.009 38.7821C140.927 38.8809 140.757 38.9304 140.504 38.9304H121.525C121.415 38.9304 121.354 38.848 121.354 38.6777C121.354 38.5075 121.398 38.4251 121.481 38.4251C122.376 38.4251 123.024 38.3537 123.43 38.2164C123.837 38.0791 124.106 37.8101 124.249 37.4201C124.386 37.0302 124.457 36.3987 124.457 35.5365V16.1454C124.43 15.3052 124.336 14.6956 124.183 14.3002C124.029 13.9103 123.749 13.6357 123.342 13.482C122.936 13.3282 122.316 13.2513 121.481 13.2513C121.398 13.2513 121.349 13.169 121.332 12.9987C121.316 12.8285 121.338 12.7461 121.393 12.7461H139.323C139.548 12.7461 139.658 12.8724 139.658 13.125L139.741 18.5288C139.741 18.6387 139.664 18.6936 139.51 18.6936C139.356 18.6936 139.263 18.6496 139.235 18.5673C138.9 17.0296 138.181 15.8104 137.077 14.9043C135.973 13.9982 134.655 13.5424 133.118 13.5424H131.272C130.377 13.5424 129.735 13.6083 129.345 13.7291C128.955 13.8554 128.697 14.0916 128.571 14.443C128.444 14.7945 128.367 15.3711 128.34 16.1839V24.7728H133.996C135.336 24.7728 136.314 24.5367 136.929 24.0589C137.544 23.5866 137.851 22.7903 137.851 21.67C137.851 21.5602 137.934 21.5053 138.104 21.5053C138.329 21.5053 138.423 21.5767 138.395 21.714C138.423 22.2192 138.428 22.697 138.417 23.1583C138.401 23.6196 138.395 23.9491 138.395 24.1413C138.368 24.3939 138.351 24.7838 138.351 25.3165C138.351 26.1842 138.362 26.8377 138.395 27.288L138.439 29.4682C138.439 29.6055 138.357 29.6769 138.186 29.6769C138.132 29.6769 138.066 29.6549 138 29.6165C137.928 29.5726 137.895 29.5286 137.895 29.4682C137.895 27.0684 136.555 25.8657 133.875 25.8657H128.345V35.3772C128.345 36.1571 128.422 36.7392 128.576 37.1181C128.73 37.497 128.999 37.7551 129.394 37.8924C129.784 38.0352 130.399 38.1011 131.239 38.1011H133.711C135.303 38.1011 136.753 37.5849 138.066 36.5525C139.378 35.52 140.356 34.1361 140.998 32.4063C141.053 32.3513 141.124 32.3239 141.207 32.3239L141.218 32.3129Z" fill="white"/>
<path d="M144.782 38.6832C144.782 38.513 144.81 38.4306 144.865 38.4306C145.787 38.4306 146.452 38.3592 146.853 38.2219C147.259 38.0846 147.528 37.8155 147.671 37.4256C147.808 37.0357 147.88 36.4042 147.88 35.542V16.1454C147.88 15.3052 147.803 14.6956 147.649 14.3002C147.495 13.9103 147.215 13.6357 146.809 13.482C146.402 13.3282 145.782 13.2513 144.947 13.2513C144.865 13.2513 144.821 13.169 144.821 12.9987C144.821 12.8285 144.865 12.7461 144.947 12.7461L146.875 12.79C148.105 12.8449 149.082 12.8724 149.807 12.8724C150.532 12.8724 151.553 12.8449 152.784 12.79L154.876 12.7461C154.931 12.7461 154.958 12.8285 154.958 12.9987C154.958 13.169 154.931 13.2513 154.876 13.2513C153.953 13.2513 153.289 13.3282 152.888 13.482C152.482 13.6357 152.212 13.9103 152.07 14.3002C151.927 14.6901 151.845 15.3217 151.817 16.1839V35.3718C151.817 36.4866 151.987 37.2224 152.322 37.5684C152.657 37.9144 153.344 38.0901 154.376 38.0901H156.683C158.748 38.0901 160.444 37.5849 161.773 36.5799C163.102 35.5749 164.14 34.0538 164.893 32.0163C164.893 31.9614 164.948 31.934 165.063 31.934C165.145 31.934 165.239 31.9559 165.338 31.9944C165.436 32.0383 165.486 32.0877 165.486 32.1427C165.261 34.3228 165.151 36.3712 165.151 38.2988C165.151 38.7162 164.926 38.9249 164.481 38.9249H144.876C144.821 38.9249 144.793 38.8425 144.793 38.6722L144.782 38.6832Z" fill="white"/>
<path d="M187.595 32.3129C187.677 32.3129 187.759 32.3349 187.847 32.3733C187.93 32.4172 187.957 32.4502 187.93 32.4776C187.65 34.235 187.512 36.179 187.512 38.2988C187.512 38.524 187.468 38.6832 187.386 38.7821C187.304 38.8809 187.133 38.9304 186.881 38.9304H167.902C167.792 38.9304 167.737 38.848 167.737 38.6777C167.737 38.5075 167.781 38.4251 167.863 38.4251C168.758 38.4251 169.406 38.3537 169.813 38.2164C170.219 38.0791 170.488 37.8101 170.631 37.4201C170.768 37.0302 170.84 36.3987 170.84 35.5365V16.1454C170.812 15.3052 170.719 14.6956 170.565 14.3002C170.411 13.9103 170.131 13.6357 169.725 13.482C169.318 13.3282 168.698 13.2513 167.863 13.2513C167.781 13.2513 167.731 13.169 167.715 12.9987C167.698 12.8285 167.72 12.7461 167.775 12.7461H185.706C185.931 12.7461 186.041 12.8724 186.041 13.125L186.123 18.5288C186.123 18.6387 186.046 18.6936 185.892 18.6936C185.738 18.6936 185.645 18.6496 185.618 18.5673C185.283 17.0296 184.563 15.8104 183.459 14.9043C182.356 13.9982 181.038 13.5424 179.5 13.5424H177.655C176.76 13.5424 176.117 13.6083 175.727 13.7291C175.337 13.8499 175.079 14.0916 174.953 14.443C174.827 14.7945 174.75 15.3711 174.722 16.1839V24.7728H180.379C181.719 24.7728 182.696 24.5367 183.311 24.0589C183.926 23.5866 184.234 22.7903 184.234 21.67C184.234 21.5602 184.316 21.5053 184.486 21.5053C184.712 21.5053 184.805 21.5767 184.777 21.714C184.805 22.2192 184.81 22.697 184.799 23.1583C184.783 23.6196 184.777 23.9491 184.777 24.1413C184.75 24.3939 184.734 24.7838 184.734 25.3165C184.734 26.1842 184.744 26.8377 184.777 27.288L184.821 29.4682C184.821 29.6055 184.739 29.6769 184.569 29.6769C184.514 29.6769 184.448 29.6549 184.382 29.6165C184.311 29.5726 184.278 29.5286 184.278 29.4682C184.278 27.0684 182.938 25.8657 180.258 25.8657H174.728V35.3772C174.728 36.1571 174.805 36.7392 174.958 37.1181C175.112 37.497 175.387 37.7551 175.777 37.8924C176.166 38.0352 176.782 38.1011 177.622 38.1011H180.093C181.686 38.1011 183.135 37.5849 184.448 36.5525C185.76 35.52 186.738 34.1361 187.38 32.4063C187.435 32.3513 187.507 32.3239 187.589 32.3239L187.595 32.3129Z" fill="white"/>
<path d="M197.227 37.4256C195.047 36.0857 193.471 34.3723 192.494 32.2964C191.516 30.2151 191.027 28.0294 191.027 25.7394C191.027 23.032 191.703 20.6596 193.059 18.6167C194.416 16.5793 196.206 15.0142 198.441 13.9268C200.676 12.8395 203.076 12.2958 205.646 12.2958C206.959 12.2958 208.315 12.4221 209.71 12.6747C211.105 12.9273 212.225 13.2349 213.06 13.5973C213.285 13.7346 213.428 13.8609 213.499 13.9762C213.571 14.0861 213.604 14.2838 213.604 14.5638L213.939 19.8853C213.939 19.9676 213.878 20.0116 213.752 20.0116C213.626 20.0116 213.538 19.9676 213.477 19.8853C212.582 17.7655 211.325 16.1454 209.704 15.0251C208.084 13.9103 206.201 13.3502 204.048 13.3502C201.253 13.3502 199.1 14.3332 197.573 16.3047C196.052 18.2707 195.289 20.9891 195.289 24.4543C195.289 26.997 195.75 29.3639 196.673 31.555C197.595 33.7462 198.853 35.4871 200.446 36.7721C202.038 38.0572 203.784 38.6997 205.685 38.6997C208.87 38.6997 211.577 36.547 213.812 32.247C213.867 32.1372 213.961 32.0932 214.087 32.1207C214.213 32.1481 214.274 32.2195 214.274 32.3294L213.982 37.1071C213.928 37.4696 213.862 37.7002 213.796 37.7991C213.724 37.8979 213.582 37.9858 213.356 38.0737C210.814 38.9963 208.216 39.4576 205.564 39.4576C202.186 39.4576 199.408 38.7876 197.227 37.4476V37.4256Z" fill="white"/>
<path d="M222.742 38.6832C222.742 38.513 222.769 38.4306 222.824 38.4306C223.966 38.4306 224.807 38.3592 225.339 38.2219C225.866 38.0846 226.234 37.8101 226.427 37.4037C226.619 36.9973 226.707 36.3767 226.679 35.542V16.1454C226.707 15.1405 226.569 14.4705 226.262 14.1355C225.954 13.8005 225.339 13.6303 224.417 13.6303H223.703C222.11 13.6303 220.748 14.2179 219.617 15.3876C218.486 16.5628 217.794 18.095 217.541 19.9951C217.541 20.05 217.47 20.0775 217.332 20.0775C217.25 20.0775 217.173 20.0555 217.102 20.0171C217.03 19.9786 217.008 19.9402 217.041 19.9127C217.179 18.9078 217.393 16.2113 217.667 11.829C217.667 11.7466 217.739 11.7027 217.876 11.7027C217.958 11.7027 218.035 11.7192 218.107 11.7466C218.178 11.7741 218.211 11.818 218.211 11.8729C218.211 12.4605 218.837 12.7516 220.095 12.7516C222.357 12.834 225.191 12.8779 228.601 12.8779C230.139 12.8779 231.852 12.8504 233.752 12.7955L236.685 12.7516C237.608 12.7516 238.278 12.6802 238.695 12.5429C239.112 12.4056 239.381 12.1255 239.491 11.7027C239.546 11.6203 239.651 11.5819 239.804 11.5983C239.958 11.6148 240.018 11.6752 239.991 11.7851C239.909 12.9877 239.826 14.487 239.738 16.2882C239.656 18.0895 239.629 19.2977 239.656 19.9127C239.656 19.9951 239.574 20.039 239.403 20.039C239.178 20.039 239.068 19.9841 239.068 19.8743C239.096 18.0016 238.585 16.4969 237.542 15.3492C236.493 14.2069 235.12 13.6303 233.417 13.6303H232.665C232.023 13.6303 231.561 13.7017 231.281 13.8389C231.001 13.9762 230.82 14.2234 230.738 14.5693C230.655 14.9208 230.6 15.47 230.573 16.2223L230.655 35.5365C230.655 36.4042 230.743 37.0302 230.93 37.4202C231.111 37.8101 231.457 38.0792 231.979 38.2164C232.495 38.3592 233.324 38.4251 234.472 38.4251C234.554 38.4251 234.598 38.5075 234.598 38.6777C234.598 38.848 234.554 38.9304 234.472 38.9304C233.494 38.9304 232.726 38.9194 232.165 38.8864L228.645 38.8425L225.295 38.8864C224.708 38.9139 223.9 38.9304 222.868 38.9304C222.786 38.9304 222.742 38.848 222.742 38.6777V38.6832Z" fill="white"/>
<path d="M243.138 38.6832C243.138 38.513 243.165 38.4306 243.22 38.4306C244.116 38.4306 244.769 38.3592 245.192 38.2219C245.609 38.0846 245.895 37.8101 246.049 37.4037C246.202 36.9973 246.263 36.3767 246.235 35.542V16.1454C246.235 15.3382 246.153 14.7286 245.983 14.3222C245.812 13.9158 245.527 13.6357 245.126 13.482C244.72 13.3282 244.083 13.2513 243.22 13.2513C243.165 13.2513 243.127 13.169 243.116 12.9987C243.1 12.8285 243.138 12.7461 243.22 12.7461L245.23 12.79C246.46 12.8449 247.438 12.8724 248.163 12.8724C249.031 12.8724 250.074 12.8449 251.304 12.79L253.232 12.7461C253.314 12.7461 253.358 12.8285 253.358 12.9987C253.358 13.169 253.314 13.2513 253.232 13.2513C252.337 13.2513 251.689 13.3337 251.282 13.5039C250.876 13.6742 250.607 13.9488 250.464 14.3442C250.327 14.7341 250.239 15.3656 250.211 16.2278V35.542C250.211 36.3822 250.288 37.0028 250.442 37.4037C250.596 37.8101 250.881 38.0791 251.299 38.2219C251.716 38.3647 252.359 38.4306 253.226 38.4306C253.309 38.4306 253.353 38.513 253.353 38.6832C253.353 38.8535 253.309 38.9358 253.226 38.9358C252.386 38.9358 251.716 38.9249 251.216 38.8919L248.24 38.848L245.351 38.8919C244.818 38.9194 244.11 38.9358 243.215 38.9358C243.16 38.9358 243.133 38.8535 243.133 38.6832H243.138Z" fill="white"/>
<path d="M282.936 13.0044C282.936 13.1692 282.864 13.2571 282.727 13.2571C281.722 13.2571 280.855 13.5316 280.13 14.0753C279.405 14.619 278.746 15.7009 278.164 17.3209L270.036 38.8976C269.981 39.0349 269.8 39.1063 269.492 39.1063C269.13 39.1063 268.921 39.0349 268.866 38.8976L258.646 16.2335C258.168 15.1462 257.691 14.3774 257.202 13.927C256.713 13.4822 256.076 13.2571 255.296 13.2571C255.214 13.2571 255.165 13.1747 255.148 13.0044C255.137 12.8342 255.17 12.7518 255.252 12.7518L257.306 12.7958C258.256 12.8507 258.937 12.8781 259.36 12.8781C260.365 12.8781 261.48 12.8507 262.71 12.7958L264.676 12.7518C264.813 12.7518 264.885 12.8342 264.885 13.0044C264.885 13.1747 264.813 13.2571 264.676 13.2571C263.924 13.2571 263.342 13.3559 262.935 13.5481C262.529 13.7458 262.326 14.0918 262.326 14.597C262.326 14.932 262.425 15.3384 262.617 15.8107L270.788 33.8673L276.862 17.1507C277.06 16.6454 277.153 16.1622 277.153 15.6844C277.153 14.9046 276.862 14.3005 276.274 13.8831C275.687 13.4657 274.863 13.2571 273.803 13.2571C273.693 13.2571 273.633 13.1747 273.633 13.0044C273.633 12.8342 273.688 12.7518 273.803 12.7518L275.813 12.7958C276.928 12.8507 277.949 12.8781 278.872 12.8781C279.399 12.8781 280.058 12.8507 280.838 12.7958L282.722 12.7518C282.859 12.7518 282.93 12.8342 282.93 13.0044H282.936Z" fill="white"/>
<path d="M304.425 32.3129C304.507 32.3129 304.595 32.3349 304.677 32.3733C304.76 32.4172 304.787 32.4502 304.76 32.4776C304.48 34.235 304.342 36.179 304.342 38.2988C304.342 38.524 304.299 38.6832 304.216 38.7821C304.134 38.8809 303.964 38.9304 303.711 38.9304H284.732C284.622 38.9304 284.561 38.848 284.561 38.6777C284.561 38.5075 284.605 38.4251 284.688 38.4251C285.583 38.4251 286.231 38.3537 286.637 38.2164C287.044 38.0791 287.313 37.8101 287.456 37.4201C287.593 37.0302 287.664 36.3987 287.664 35.5365V16.1454C287.637 15.3052 287.543 14.6956 287.39 14.3002C287.236 13.9103 286.956 13.6357 286.549 13.482C286.143 13.3282 285.523 13.2513 284.688 13.2513C284.605 13.2513 284.556 13.169 284.54 12.9987C284.523 12.8285 284.545 12.7461 284.6 12.7461H302.53C302.755 12.7461 302.865 12.8724 302.865 13.125L302.948 18.5288C302.948 18.6387 302.871 18.6936 302.717 18.6936C302.563 18.6936 302.47 18.6496 302.442 18.5673C302.107 17.0296 301.388 15.8104 300.284 14.9043C299.18 13.9982 297.862 13.5424 296.325 13.5424H294.479C293.584 13.5424 292.942 13.6083 292.552 13.7291C292.162 13.8554 291.904 14.0916 291.778 14.443C291.651 14.7945 291.574 15.3711 291.547 16.1839V24.7728H297.203C298.543 24.7728 299.521 24.5367 300.136 24.0589C300.751 23.5866 301.058 22.7903 301.058 21.67C301.058 21.5602 301.141 21.5053 301.311 21.5053C301.536 21.5053 301.63 21.5767 301.602 21.714C301.63 22.2192 301.635 22.697 301.624 23.1583C301.608 23.6196 301.602 23.9491 301.602 24.1413C301.575 24.3939 301.558 24.7838 301.558 25.3165C301.558 26.1842 301.575 26.8377 301.602 27.288L301.646 29.4682C301.646 29.6055 301.564 29.6769 301.393 29.6769C301.339 29.6769 301.273 29.6549 301.207 29.6165C301.141 29.578 301.102 29.5286 301.102 29.4682C301.102 27.0684 299.762 25.8657 297.082 25.8657H291.552V35.3772C291.552 36.1571 291.629 36.7392 291.783 37.1181C291.937 37.497 292.206 37.7551 292.601 37.8924C292.991 38.0352 293.606 38.1011 294.446 38.1011H296.918C298.51 38.1011 299.96 37.5849 301.273 36.5525C302.585 35.52 303.563 34.1361 304.205 32.4063C304.26 32.3513 304.331 32.3239 304.414 32.3239L304.425 32.3129Z" fill="white"/>
<path d="M119.702 52.418C119.702 52.5278 119.619 52.5827 119.449 52.5827C119.279 52.5827 119.185 52.5388 119.158 52.4564C118.85 50.9188 118.147 49.6996 117.044 48.7935C115.94 47.8874 114.622 47.4315 113.084 47.4315H111.239C110.316 47.4315 109.663 47.4974 109.267 47.6183C108.878 47.7446 108.619 47.9807 108.493 48.3322C108.367 48.6836 108.29 49.2603 108.262 50.073V59.1617H113.123C114.463 59.1617 115.435 58.9201 116.033 58.4314C116.632 57.9426 116.934 57.1408 116.934 56.0205C116.934 55.9107 117.022 55.8503 117.208 55.8503C117.395 55.8503 117.483 55.9052 117.483 56.0205L117.439 59.7494C117.439 60.617 117.45 61.2596 117.483 61.6769L117.527 63.8571C117.527 63.9669 117.456 64.0219 117.318 64.0219C117.263 64.0219 117.197 63.9999 117.131 63.9615C117.06 63.9175 117.027 63.8736 117.027 63.8132C117.027 62.638 116.687 61.7538 116 61.1552C115.314 60.5566 114.32 60.2546 113.007 60.2546H108.273V69.2609C108.301 70.1286 108.433 70.7711 108.669 71.1885C108.905 71.6059 109.344 71.9024 109.987 72.0672C110.629 72.2319 111.623 72.3198 112.963 72.3198C113.046 72.3198 113.09 72.4021 113.09 72.5724C113.09 72.7426 113.046 72.825 112.963 72.825C112.211 72.825 111.579 72.8085 111.08 72.7811L106.263 72.7371L103.457 72.7811C102.952 72.8085 102.271 72.825 101.403 72.825C101.321 72.825 101.277 72.7426 101.277 72.5724C101.277 72.4021 101.321 72.3198 101.403 72.3198C102.299 72.3198 102.947 72.2484 103.353 72.1111C103.759 71.9738 104.028 71.7047 104.171 71.3148C104.308 70.9249 104.38 70.2933 104.38 69.4312V50.0346C104.38 49.1944 104.303 48.5848 104.149 48.1894C103.995 47.7995 103.71 47.5249 103.292 47.3711C102.875 47.2174 102.233 47.1405 101.365 47.1405C101.31 47.1405 101.272 47.0581 101.261 46.8879C101.244 46.7176 101.283 46.6353 101.365 46.6353H119.251C119.389 46.6353 119.482 46.6627 119.526 46.7176C119.57 46.7725 119.586 46.8714 119.586 47.0087L119.713 52.4125L119.702 52.418Z" fill="white"/>
<path d="M124.732 72.5669C124.732 72.4021 124.76 72.3143 124.815 72.3143C125.71 72.3143 126.363 72.2429 126.786 72.1056C127.204 71.9683 127.489 71.6937 127.643 71.2873C127.797 70.881 127.857 70.2604 127.83 69.4257V50.0291C127.83 49.2218 127.747 48.6122 127.577 48.2059C127.407 47.7995 127.121 47.5194 126.72 47.3656C126.314 47.2119 125.677 47.135 124.815 47.135C124.76 47.135 124.721 47.0526 124.71 46.8824C124.694 46.7121 124.732 46.6298 124.815 46.6298L126.825 46.6737C128.055 46.7286 129.032 46.7561 129.757 46.7561C130.625 46.7561 131.668 46.7286 132.898 46.6737L134.826 46.6298C134.908 46.6298 134.952 46.7121 134.952 46.8824C134.952 47.0526 134.908 47.135 134.826 47.135C133.931 47.135 133.283 47.2174 132.876 47.3876C132.47 47.5579 132.201 47.8324 132.058 48.2278C131.915 48.6177 131.833 49.2493 131.806 50.1115V69.4257C131.806 70.2659 131.882 70.8864 132.036 71.2873C132.19 71.6937 132.476 71.9628 132.893 72.1056C133.31 72.2429 133.953 72.3143 134.82 72.3143C134.903 72.3143 134.947 72.3967 134.947 72.5669C134.947 72.7371 134.903 72.8195 134.82 72.8195C133.98 72.8195 133.31 72.803 132.81 72.7756L129.834 72.7316L126.945 72.7756C126.413 72.803 125.704 72.8195 124.809 72.8195C124.754 72.8195 124.727 72.7371 124.727 72.5669H124.732Z" fill="white"/>
<path d="M167.21 46.8879C167.21 47.0526 167.166 47.1405 167.084 47.1405C165.936 47.1405 165.047 47.5084 164.404 48.2498C163.762 48.9912 163.443 50.0291 163.443 51.3691L163.399 73.1545C163.399 73.2369 163.328 73.3028 163.19 73.3412C163.048 73.3852 162.91 73.4071 162.773 73.4071C162.548 73.4071 162.394 73.3522 162.312 73.2369L144.59 50.6991L144.546 68.0857C144.546 69.4531 144.854 70.502 145.469 71.2269C146.084 71.9518 146.963 72.3143 148.11 72.3143C148.22 72.3143 148.275 72.3967 148.275 72.5669C148.275 72.7371 148.22 72.8195 148.11 72.8195C147.385 72.8195 146.825 72.803 146.435 72.7756L143.964 72.7316L141.619 72.7756C141.174 72.803 140.543 72.8195 139.736 72.8195C139.626 72.8195 139.565 72.7371 139.565 72.5669C139.565 72.3967 139.62 72.3143 139.736 72.3143C140.878 72.3143 141.773 71.9518 142.415 71.2269C143.058 70.502 143.376 69.4531 143.376 68.0857L143.42 49.2767C142.723 48.4969 142.064 47.9423 141.454 47.6238C140.839 47.3052 140.224 47.1405 139.609 47.1405C139.527 47.1405 139.483 47.0581 139.483 46.8879C139.483 46.7176 139.527 46.6353 139.609 46.6353L141.619 46.6792C142.037 46.7066 142.597 46.7231 143.294 46.7231C143.992 46.7231 144.53 46.7121 144.991 46.6792C145.452 46.6517 145.765 46.6353 145.936 46.6353C146.161 46.6353 146.326 46.6902 146.441 46.8055C146.551 46.9153 146.704 47.124 146.902 47.4315C147.21 47.9368 147.528 48.3926 147.863 48.8154L162.235 67.1247L162.279 51.3746C162.306 50.0071 162.015 48.9582 161.4 48.2333C160.785 47.5084 159.89 47.146 158.72 47.146C158.61 47.146 158.555 47.0636 158.555 46.8934C158.555 46.7231 158.61 46.6407 158.72 46.6407L160.269 46.6847C161.274 46.7396 162.142 46.7671 162.866 46.7671C163.427 46.7671 164.206 46.7396 165.211 46.6847L167.095 46.6407C167.177 46.6407 167.221 46.7231 167.221 46.8934L167.21 46.8879Z" fill="white"/>
<path d="M195.695 72.5669C195.695 72.7371 195.651 72.8195 195.569 72.8195C195.064 72.8195 194.311 72.792 193.306 72.7371C192.131 72.6822 191.214 72.6547 190.539 72.6547C189.863 72.6547 189.001 72.6822 187.941 72.7371C186.991 72.792 186.266 72.8195 185.761 72.8195C185.651 72.8195 185.596 72.7371 185.596 72.5669C185.596 72.3966 185.651 72.3143 185.761 72.3143C186.656 72.3143 187.288 72.2209 187.667 72.0397C188.045 71.8585 188.232 71.529 188.232 71.0567C188.232 70.6668 188.078 70.0792 187.771 69.2993L184.042 59.958H177.337L174.278 67.3718C173.833 68.4591 173.608 69.3543 173.608 70.0517C173.608 70.8645 173.91 71.4411 174.508 71.7926C175.107 72.144 176.035 72.3143 177.293 72.3143C177.403 72.3143 177.463 72.3966 177.463 72.5669C177.463 72.7371 177.392 72.8195 177.254 72.8195C176.892 72.8195 176.15 72.792 175.036 72.7371C173.696 72.6822 172.674 72.6547 171.977 72.6547C171.279 72.6547 170.527 72.6822 169.632 72.7371C168.852 72.792 168.21 72.8195 167.704 72.8195C167.594 72.8195 167.54 72.7371 167.54 72.5669C167.54 72.3966 167.594 72.3143 167.704 72.3143C168.545 72.3143 169.445 71.8859 170.406 71.0347C171.367 70.1835 172.213 68.9314 172.943 67.2839L181.867 46.2563C181.867 46.1739 181.977 46.13 182.202 46.13C182.455 46.13 182.62 46.1849 182.708 46.2948L191.796 69.2938C192.159 70.189 192.461 70.8205 192.697 71.1995C192.933 71.5784 193.263 71.8585 193.68 72.0397C194.097 72.2209 194.729 72.3143 195.564 72.3143C195.646 72.3143 195.69 72.3966 195.69 72.5669H195.695ZM177.765 58.9091H183.63L180.742 51.6217L177.765 58.9091Z" fill="white"/>
<path d="M227.113 46.8879C227.113 47.0526 227.069 47.1405 226.987 47.1405C225.839 47.1405 224.949 47.5084 224.307 48.2498C223.664 48.9912 223.346 50.0291 223.346 51.3691L223.302 73.1545C223.302 73.2369 223.231 73.3028 223.093 73.3412C222.956 73.3852 222.813 73.4071 222.676 73.4071C222.451 73.4071 222.297 73.3522 222.215 73.2369L204.493 50.6991L204.449 68.0857C204.449 69.4531 204.757 70.502 205.372 71.2269C205.987 71.9518 206.865 72.3143 208.013 72.3143C208.123 72.3143 208.183 72.3967 208.183 72.5669C208.183 72.7371 208.128 72.8195 208.013 72.8195C207.288 72.8195 206.728 72.803 206.338 72.7756L203.867 72.7316L201.522 72.7756C201.077 72.803 200.446 72.8195 199.638 72.8195C199.529 72.8195 199.474 72.7371 199.474 72.5669C199.474 72.3967 199.529 72.3143 199.638 72.3143C200.781 72.3143 201.676 71.9518 202.318 71.2269C202.961 70.502 203.279 69.4531 203.279 68.0857L203.323 49.2767C202.626 48.4969 201.967 47.9423 201.357 47.6238C200.742 47.3052 200.127 47.1405 199.512 47.1405C199.43 47.1405 199.386 47.0581 199.386 46.8879C199.386 46.7176 199.43 46.6353 199.512 46.6353L201.522 46.6792C201.939 46.7066 202.5 46.7231 203.197 46.7231C203.894 46.7231 204.433 46.7121 204.894 46.6792C205.355 46.6517 205.668 46.6353 205.838 46.6353C206.064 46.6353 206.228 46.6902 206.344 46.8055C206.454 46.9153 206.607 47.124 206.805 47.4315C207.113 47.9368 207.431 48.3926 207.766 48.8154L222.138 67.1247L222.182 51.3746C222.209 50.0071 221.918 48.9582 221.303 48.2333C220.688 47.5084 219.793 47.146 218.623 47.146C218.513 47.146 218.453 47.0636 218.453 46.8934C218.453 46.7231 218.508 46.6407 218.623 46.6407L220.172 46.6847C221.177 46.7396 222.044 46.7671 222.769 46.7671C223.329 46.7671 224.109 46.7396 225.114 46.6847L226.998 46.6407C227.08 46.6407 227.124 46.7231 227.124 46.8934L227.113 46.8879Z" fill="white"/>
<path d="M234.489 71.3094C232.308 69.9695 230.732 68.2561 229.755 66.1802C228.777 64.0989 228.289 61.9132 228.289 59.6232C228.289 56.9158 228.964 54.5434 230.32 52.5005C231.677 50.4631 233.467 48.8979 235.702 47.8106C237.937 46.7232 240.337 46.1796 242.907 46.1796C244.22 46.1796 245.576 46.3059 246.971 46.5585C248.366 46.8111 249.486 47.1186 250.321 47.4811C250.546 47.6184 250.689 47.7447 250.76 47.86C250.832 47.9699 250.865 48.1676 250.865 48.4476L251.2 53.7691C251.2 53.8514 251.139 53.8954 251.013 53.8954C250.887 53.8954 250.799 53.8514 250.738 53.7691C249.843 51.6493 248.586 50.0292 246.966 48.9089C245.346 47.7941 243.462 47.234 241.309 47.234C238.514 47.234 236.361 48.217 234.835 50.1885C233.313 52.1545 232.55 54.8729 232.55 58.3381C232.55 60.8808 233.011 63.2477 233.934 65.4388C234.857 67.63 236.114 69.3709 237.707 70.6559C239.299 71.941 241.046 72.5835 242.946 72.5835C246.131 72.5835 248.838 70.4308 251.073 66.1308C251.128 66.021 251.222 65.977 251.348 66.0045C251.474 66.0319 251.535 66.1033 251.535 66.2132L251.244 70.9909C251.189 71.3534 251.123 71.584 251.057 71.6829C250.986 71.7817 250.843 71.8696 250.618 71.9574C248.075 72.88 245.477 73.3413 242.825 73.3413C239.448 73.3413 236.669 72.6714 234.489 71.3314V71.3094Z" fill="white"/>
<path d="M273.863 66.2021C273.946 66.2021 274.034 66.224 274.116 66.2625C274.198 66.3064 274.226 66.3393 274.198 66.3668C273.918 68.1241 273.781 70.0682 273.781 72.188C273.781 72.4131 273.737 72.5724 273.655 72.6712C273.572 72.7701 273.402 72.8195 273.149 72.8195H254.17C254.06 72.8195 254 72.7371 254 72.5669C254 72.3967 254.044 72.3143 254.126 72.3143C255.021 72.3143 255.669 72.2429 256.076 72.1056C256.482 71.9683 256.751 71.6992 256.894 71.3093C257.031 70.9194 257.103 70.2879 257.103 69.4257V50.0291C257.075 49.1889 256.982 48.5793 256.828 48.1839C256.674 47.794 256.394 47.5194 255.988 47.3656C255.582 47.2119 254.961 47.135 254.126 47.135C254.044 47.135 253.994 47.0526 253.978 46.8824C253.962 46.7121 253.983 46.6298 254.038 46.6298H271.969C272.194 46.6298 272.304 46.7561 272.304 47.0087L272.386 52.4125C272.386 52.5223 272.309 52.5772 272.155 52.5772C272.002 52.5772 271.908 52.5333 271.881 52.4509C271.546 50.9133 270.826 49.6941 269.723 48.788C268.619 47.8819 267.301 47.4261 265.763 47.4261H263.918C263.023 47.4261 262.38 47.4919 261.99 47.6128C261.6 47.7391 261.342 47.9752 261.216 48.3267C261.09 48.6781 261.013 49.2548 260.985 50.0675V58.6565H266.642C267.982 58.6565 268.959 58.4204 269.574 57.9426C270.189 57.4703 270.497 56.674 270.497 55.5537C270.497 55.4439 270.579 55.389 270.75 55.389C270.975 55.389 271.068 55.4604 271.041 55.5976C271.068 56.1029 271.074 56.5807 271.063 57.042C271.046 57.5033 271.041 57.8328 271.041 58.025C271.013 58.2776 270.997 58.6675 270.997 59.2002C270.997 60.0679 271.013 60.7214 271.041 61.1717L271.085 63.3519C271.085 63.4892 271.002 63.5606 270.832 63.5606C270.777 63.5606 270.711 63.5386 270.645 63.5002C270.579 63.4617 270.541 63.4123 270.541 63.3519C270.541 60.952 269.201 59.7493 266.521 59.7493H260.991V69.2609C260.991 70.0407 261.068 70.6228 261.222 71.0018C261.375 71.3807 261.644 71.6388 262.04 71.7761C262.43 71.9134 263.045 71.9848 263.885 71.9848H266.356C267.949 71.9848 269.399 71.4686 270.711 70.4361C272.024 69.4037 273.001 68.0198 273.644 66.2899C273.699 66.235 273.77 66.2075 273.852 66.2075L273.863 66.2021Z" fill="white"/>
</g>
<defs>
<clipPath id="clip0_98_3900">
<rect width="304.771" height="85" fill="white"/>
</clipPath>
</defs>
</svg>
